<svg width="1000" height="700" viewBox="0 0 1000 700" fill="none" xmlns="http://www.w3.org/2000/svg">
<path d="M258.2 490.2C262.2 490.2 265.5 491.6 268.3 494.4C271.1 497.2 272.5 500.6 272.5 504.5V554.1H221.8C217.8 554.1 214.5 552.7 211.7 549.9C208.9 547.1 207.5 543.7 207.5 539.8V516.2H260.6V504.5C260.6 503.8 260.4 503.3 259.9 502.8C259.4 502.3 258.9 502.1 258.2 502.1H207.5V490.2H258.2ZM260.6 542.2V528.1H219.4V539.8C219.4 540.5 219.6 541 220.1 541.5C220.6 542 221.1 542.2 221.8 542.2H260.6V542.2ZM375.3 490.2H388L364 554.1H354.3L332.8 506.6L312.5 554.1L312.3 554L312.4 554.1H302.8L277.7 490.2H290.3L307.6 532.6L326 490.2H339.6L359.1 532.6L375.3 490.2ZM442.5 490.2C446.5 490.2 449.8 491.6 452.6 494.4C455.4 497.2 456.8 500.6 456.8 504.5V528.1H403.7V539.8C403.7 540.5 403.9 541 404.4 541.5C404.9 542 405.4 542.2 406.1 542.2H456.8V554.1H406.1C402.1 554.1 398.8 552.7 396 549.9C393.2 547.1 391.8 543.7 391.8 539.8V504.5C391.8 500.5 393.2 497.2 396 494.4C398.8 491.6 402.2 490.2 406.1 490.2H442.5V490.2ZM403.7 516.2H444.9V504.5C444.9 503.8 444.7 503.3 444.2 502.8C443.7 502.3 443.2 502.1 442.5 502.1H406.1C405.4 502.1 404.9 502.3 404.4 502.8C403.9 503.3 403.7 503.8 403.7 504.5V516.2V516.2ZM532.7 504.6V507H520.8V504.6C520.8 503.9 520.6 503.4 520.1 502.9C519.6 502.4 519.1 502.2 518.4 502.2H482C481.3 502.2 480.8 502.4 480.3 502.9C479.8 503.4 479.6 503.9 479.6 504.6V513.9C479.6 514.6 479.8 515.1 480.3 515.6C480.8 516.1 481.3 516.3 482 516.3H518.4C522.4 516.3 525.7 517.7 528.5 520.5C531.3 523.3 532.7 526.7 532.7 530.6V539.9C532.7 543.9 531.3 547.2 528.5 550C525.7 552.8 522.3 554.2 518.4 554.2H482C478 554.2 474.7 552.8 471.9 550C469.1 547.2 467.7 543.8 467.7 539.9V537.5H479.6V539.9C479.6 540.6 479.8 541.1 480.3 541.6C480.8 542.1 481.3 542.3 482 542.3H518.4C519.1 542.3 519.6 542.1 520.1 541.6C520.6 541.1 520.8 540.6 520.8 539.9V530.6C520.8 529.9 520.6 529.4 520.1 528.9C519.6 528.4 519.1 528.2 518.4 528.2H482C478 528.2 474.7 526.8 471.9 524C469.1 521.2 467.7 517.8 467.7 513.9V504.6C467.7 500.6 469.1 497.3 471.9 494.5C474.7 491.7 478.1 490.3 482 490.3H518.4C522.4 490.3 525.7 491.7 528.5 494.5C531.3 497.2 532.7 500.6 532.7 504.6ZM557.9 490.2H594.3C598.3 490.2 601.6 491.6 604.4 494.4C607.2 497.2 608.6 500.6 608.6 504.5V539.8C608.6 543.8 607.2 547.1 604.4 549.9C601.6 552.7 598.2 554.1 594.3 554.1H557.9C553.9 554.1 550.6 552.7 547.8 549.9C545 547.1 543.6 543.7 543.6 539.8V504.5C543.6 500.5 545 497.2 547.8 494.4C550.6 491.6 554 490.2 557.9 490.2V490.2ZM594.3 502.1H557.9C557.2 502.1 556.7 502.3 556.2 502.8C555.7 503.3 555.5 503.8 555.5 504.5V539.8C555.5 540.5 555.7 541 556.2 541.5C556.7 542 557.2 542.2 557.9 542.2H594.3C595 542.2 595.5 542 596 541.5C596.5 541 596.7 540.5 596.7 539.8V504.5C596.7 503.8 596.5 503.3 596 502.8C595.5 502.4 595 502.1 594.3 502.1ZM701.8 490.2C705.8 490.2 709.1 491.6 711.9 494.4C714.7 497.2 716.1 500.6 716.1 504.5V554.1H704.3V504.5C704.3 503.8 704.1 503.3 703.6 502.8C703.1 502.3 702.5 502.1 701.8 502.1H676.6C675.9 502.1 675.4 502.3 674.9 502.8C674.4 503.3 674.2 503.8 674.2 504.5V554.1H662.3V504.5C662.3 503.8 662.1 503.3 661.6 502.8C661.1 502.3 660.6 502.1 659.9 502.1H634.6C633.9 502.1 633.4 502.3 632.9 502.8C632.4 503.3 632.2 503.8 632.2 504.5V554.1H620.3V490.2H701.8ZM778.3 490.2C782.3 490.2 785.6 491.6 788.4 494.4C791.2 497.2 792.6 500.6 792.6 504.5V528.1H739.5V539.8C739.5 540.5 739.7 541 740.2 541.5C740.7 542 741.2 542.2 741.9 542.2H792.6V554.1H741.9C737.9 554.1 734.6 552.7 731.8 549.9C729 547.1 727.6 543.7 727.6 539.8V504.5C727.6 500.5 729 497.2 731.8 494.4C734.6 491.6 738 490.2 741.9 490.2H778.3V490.2ZM739.5 516.2H780.7V504.5C780.7 503.8 780.5 503.3 780 502.8C779.5 502.3 779 502.1 778.3 502.1H741.9C741.2 502.1 740.7 502.3 740.2 502.8C739.7 503.3 739.5 503.8 739.5 504.5V516.2V516.2Z" fill="#494368"/>
<path d="M792.5 258.1L642.5 120.5L621.4 143.5L746.4 258.1H253.7L378.7 143.4L357.6 120.4L207.6 258.1H207.5V348.8C207.5 389.8 247 423.2 295.5 423.2H388C436.5 423.2 476 389.8 476 348.8V289.2H524V348.8C524 389.8 563.5 423.2 612 423.2H704.5C753 423.2 792.5 389.8 792.5 348.8V258.1Z" fill="url(#paint0_linear)"/>
<defs>
<linearGradient id="paint0_linear" x1="714" y1="170" x2="500" y2="465.5" gradientUnits="userSpaceOnUse">
<stop stop-color="#00A3FF"/>
<stop offset="0.959746" stop-color="#4200FF" stop-opacity="0.9"/>
</linearGradient>
</defs>
</svg>
